G04 #@! TF.GenerationSoftware,KiCad,Pcbnew,(5.1.2)-2*
G04 #@! TF.CreationDate,2020-08-26T15:48:28-05:00*
G04 #@! TF.ProjectId,EDS-Relays,4544532d-5265-46c6-9179-732e6b696361,rev?*
G04 #@! TF.SameCoordinates,Original*
G04 #@! TF.FileFunction,Soldermask,Top*
G04 #@! TF.FilePolarity,Negative*
%FSLAX46Y46*%
G04 Gerber Fmt 4.6, Leading zero omitted, Abs format (unit mm)*
G04 Created by KiCad (PCBNEW (5.1.2)-2) date 2020-08-26 15:48:28*
%MOMM*%
%LPD*%
G04 APERTURE LIST*
%ADD10C,0.100000*%
G04 APERTURE END LIST*
D10*
G36*
X147901000Y-121401000D02*
G01*
X146099000Y-121401000D01*
X146099000Y-119599000D01*
X147901000Y-119599000D01*
X147901000Y-121401000D01*
X147901000Y-121401000D01*
G37*
G36*
X152190442Y-119605518D02*
G01*
X152256627Y-119612037D01*
X152426466Y-119663557D01*
X152582991Y-119747222D01*
X152618729Y-119776552D01*
X152720186Y-119859814D01*
X152795019Y-119951000D01*
X152832778Y-119997009D01*
X152916443Y-120153534D01*
X152967963Y-120323373D01*
X152985359Y-120500000D01*
X152967963Y-120676627D01*
X152916443Y-120846466D01*
X152832778Y-121002991D01*
X152803448Y-121038729D01*
X152720186Y-121140186D01*
X152618729Y-121223448D01*
X152582991Y-121252778D01*
X152426466Y-121336443D01*
X152256627Y-121387963D01*
X152190443Y-121394481D01*
X152124260Y-121401000D01*
X152035740Y-121401000D01*
X151969557Y-121394481D01*
X151903373Y-121387963D01*
X151733534Y-121336443D01*
X151577009Y-121252778D01*
X151541271Y-121223448D01*
X151439814Y-121140186D01*
X151356552Y-121038729D01*
X151327222Y-121002991D01*
X151243557Y-120846466D01*
X151192037Y-120676627D01*
X151174641Y-120500000D01*
X151192037Y-120323373D01*
X151243557Y-120153534D01*
X151327222Y-119997009D01*
X151364981Y-119951000D01*
X151439814Y-119859814D01*
X151541271Y-119776552D01*
X151577009Y-119747222D01*
X151733534Y-119663557D01*
X151903373Y-119612037D01*
X151969558Y-119605518D01*
X152035740Y-119599000D01*
X152124260Y-119599000D01*
X152190442Y-119605518D01*
X152190442Y-119605518D01*
G37*
G36*
X154730442Y-119605518D02*
G01*
X154796627Y-119612037D01*
X154966466Y-119663557D01*
X155122991Y-119747222D01*
X155158729Y-119776552D01*
X155260186Y-119859814D01*
X155335019Y-119951000D01*
X155372778Y-119997009D01*
X155456443Y-120153534D01*
X155507963Y-120323373D01*
X155525359Y-120500000D01*
X155507963Y-120676627D01*
X155456443Y-120846466D01*
X155372778Y-121002991D01*
X155343448Y-121038729D01*
X155260186Y-121140186D01*
X155158729Y-121223448D01*
X155122991Y-121252778D01*
X154966466Y-121336443D01*
X154796627Y-121387963D01*
X154730443Y-121394481D01*
X154664260Y-121401000D01*
X154575740Y-121401000D01*
X154509557Y-121394481D01*
X154443373Y-121387963D01*
X154273534Y-121336443D01*
X154117009Y-121252778D01*
X154081271Y-121223448D01*
X153979814Y-121140186D01*
X153896552Y-121038729D01*
X153867222Y-121002991D01*
X153783557Y-120846466D01*
X153732037Y-120676627D01*
X153714641Y-120500000D01*
X153732037Y-120323373D01*
X153783557Y-120153534D01*
X153867222Y-119997009D01*
X153904981Y-119951000D01*
X153979814Y-119859814D01*
X154081271Y-119776552D01*
X154117009Y-119747222D01*
X154273534Y-119663557D01*
X154443373Y-119612037D01*
X154509558Y-119605518D01*
X154575740Y-119599000D01*
X154664260Y-119599000D01*
X154730442Y-119605518D01*
X154730442Y-119605518D01*
G37*
G36*
X149650442Y-119605518D02*
G01*
X149716627Y-119612037D01*
X149886466Y-119663557D01*
X150042991Y-119747222D01*
X150078729Y-119776552D01*
X150180186Y-119859814D01*
X150255019Y-119951000D01*
X150292778Y-119997009D01*
X150376443Y-120153534D01*
X150427963Y-120323373D01*
X150445359Y-120500000D01*
X150427963Y-120676627D01*
X150376443Y-120846466D01*
X150292778Y-121002991D01*
X150263448Y-121038729D01*
X150180186Y-121140186D01*
X150078729Y-121223448D01*
X150042991Y-121252778D01*
X149886466Y-121336443D01*
X149716627Y-121387963D01*
X149650443Y-121394481D01*
X149584260Y-121401000D01*
X149495740Y-121401000D01*
X149429557Y-121394481D01*
X149363373Y-121387963D01*
X149193534Y-121336443D01*
X149037009Y-121252778D01*
X149001271Y-121223448D01*
X148899814Y-121140186D01*
X148816552Y-121038729D01*
X148787222Y-121002991D01*
X148703557Y-120846466D01*
X148652037Y-120676627D01*
X148634641Y-120500000D01*
X148652037Y-120323373D01*
X148703557Y-120153534D01*
X148787222Y-119997009D01*
X148824981Y-119951000D01*
X148899814Y-119859814D01*
X149001271Y-119776552D01*
X149037009Y-119747222D01*
X149193534Y-119663557D01*
X149363373Y-119612037D01*
X149429558Y-119605518D01*
X149495740Y-119599000D01*
X149584260Y-119599000D01*
X149650442Y-119605518D01*
X149650442Y-119605518D01*
G37*
G36*
X165501000Y-120726000D02*
G01*
X164599000Y-120726000D01*
X164599000Y-119874000D01*
X165501000Y-119874000D01*
X165501000Y-120726000D01*
X165501000Y-120726000D01*
G37*
G36*
X167001000Y-120726000D02*
G01*
X166099000Y-120726000D01*
X166099000Y-119874000D01*
X167001000Y-119874000D01*
X167001000Y-120726000D01*
X167001000Y-120726000D01*
G37*
G36*
X128816000Y-120211000D02*
G01*
X126714000Y-120211000D01*
X126714000Y-118329000D01*
X128816000Y-118329000D01*
X128816000Y-120211000D01*
X128816000Y-120211000D01*
G37*
G36*
X119286000Y-120211000D02*
G01*
X117184000Y-120211000D01*
X117184000Y-118329000D01*
X119286000Y-118329000D01*
X119286000Y-120211000D01*
X119286000Y-120211000D01*
G37*
G36*
X113033642Y-118429781D02*
G01*
X113179414Y-118490162D01*
X113179416Y-118490163D01*
X113310608Y-118577822D01*
X113422178Y-118689392D01*
X113509837Y-118820584D01*
X113509838Y-118820586D01*
X113570219Y-118966358D01*
X113601000Y-119121107D01*
X113601000Y-119278893D01*
X113570219Y-119433642D01*
X113509838Y-119579414D01*
X113509837Y-119579416D01*
X113422178Y-119710608D01*
X113310608Y-119822178D01*
X113179416Y-119909837D01*
X113179415Y-119909838D01*
X113179414Y-119909838D01*
X113033642Y-119970219D01*
X112878893Y-120001000D01*
X112721107Y-120001000D01*
X112566358Y-119970219D01*
X112420586Y-119909838D01*
X112420585Y-119909838D01*
X112420584Y-119909837D01*
X112289392Y-119822178D01*
X112177822Y-119710608D01*
X112090163Y-119579416D01*
X112090162Y-119579414D01*
X112029781Y-119433642D01*
X111999000Y-119278893D01*
X111999000Y-119121107D01*
X112029781Y-118966358D01*
X112090162Y-118820586D01*
X112090163Y-118820584D01*
X112177822Y-118689392D01*
X112289392Y-118577822D01*
X112420584Y-118490163D01*
X112420586Y-118490162D01*
X112566358Y-118429781D01*
X112721107Y-118399000D01*
X112878893Y-118399000D01*
X113033642Y-118429781D01*
X113033642Y-118429781D01*
G37*
G36*
X143801000Y-119951000D02*
G01*
X142149000Y-119951000D01*
X142149000Y-118549000D01*
X143801000Y-118549000D01*
X143801000Y-119951000D01*
X143801000Y-119951000D01*
G37*
G36*
X135851000Y-119951000D02*
G01*
X134199000Y-119951000D01*
X134199000Y-118549000D01*
X135851000Y-118549000D01*
X135851000Y-119951000D01*
X135851000Y-119951000D01*
G37*
G36*
X107364903Y-116867075D02*
G01*
X107592571Y-116961378D01*
X107797466Y-117098285D01*
X107971715Y-117272534D01*
X108108622Y-117477429D01*
X108202925Y-117705097D01*
X108251000Y-117946787D01*
X108251000Y-118193213D01*
X108202925Y-118434903D01*
X108108622Y-118662571D01*
X107971715Y-118867466D01*
X107797466Y-119041715D01*
X107592571Y-119178622D01*
X107592570Y-119178623D01*
X107592569Y-119178623D01*
X107364903Y-119272925D01*
X107123214Y-119321000D01*
X106876786Y-119321000D01*
X106635097Y-119272925D01*
X106407431Y-119178623D01*
X106407430Y-119178623D01*
X106407429Y-119178622D01*
X106202534Y-119041715D01*
X106028285Y-118867466D01*
X105891378Y-118662571D01*
X105797075Y-118434903D01*
X105749000Y-118193213D01*
X105749000Y-117946787D01*
X105797075Y-117705097D01*
X105891378Y-117477429D01*
X106028285Y-117272534D01*
X106202534Y-117098285D01*
X106407429Y-116961378D01*
X106635097Y-116867075D01*
X106876786Y-116819000D01*
X107123214Y-116819000D01*
X107364903Y-116867075D01*
X107364903Y-116867075D01*
G37*
G36*
X147651000Y-118151000D02*
G01*
X146349000Y-118151000D01*
X146349000Y-117149000D01*
X147651000Y-117149000D01*
X147651000Y-118151000D01*
X147651000Y-118151000D01*
G37*
G36*
X152501000Y-117801000D02*
G01*
X151499000Y-117801000D01*
X151499000Y-117199000D01*
X152501000Y-117199000D01*
X152501000Y-117801000D01*
X152501000Y-117801000D01*
G37*
G36*
X150001000Y-117801000D02*
G01*
X148999000Y-117801000D01*
X148999000Y-117199000D01*
X150001000Y-117199000D01*
X150001000Y-117801000D01*
X150001000Y-117801000D01*
G37*
G36*
X128816000Y-117671000D02*
G01*
X126714000Y-117671000D01*
X126714000Y-115789000D01*
X128816000Y-115789000D01*
X128816000Y-117671000D01*
X128816000Y-117671000D01*
G37*
G36*
X119286000Y-117671000D02*
G01*
X117184000Y-117671000D01*
X117184000Y-115789000D01*
X119286000Y-115789000D01*
X119286000Y-117671000D01*
X119286000Y-117671000D01*
G37*
G36*
X131001000Y-117301000D02*
G01*
X129999000Y-117301000D01*
X129999000Y-116699000D01*
X131001000Y-116699000D01*
X131001000Y-117301000D01*
X131001000Y-117301000D01*
G37*
G36*
X161601000Y-116851000D02*
G01*
X157999000Y-116851000D01*
X157999000Y-115149000D01*
X161601000Y-115149000D01*
X161601000Y-116851000D01*
X161601000Y-116851000D01*
G37*
G36*
X167001000Y-116851000D02*
G01*
X163399000Y-116851000D01*
X163399000Y-115149000D01*
X167001000Y-115149000D01*
X167001000Y-116851000D01*
X167001000Y-116851000D01*
G37*
G36*
X112051000Y-116401000D02*
G01*
X109949000Y-116401000D01*
X109949000Y-114599000D01*
X112051000Y-114599000D01*
X112051000Y-116401000D01*
X112051000Y-116401000D01*
G37*
G36*
X116051000Y-116401000D02*
G01*
X113949000Y-116401000D01*
X113949000Y-114599000D01*
X116051000Y-114599000D01*
X116051000Y-116401000D01*
X116051000Y-116401000D01*
G37*
G36*
X150001000Y-116301000D02*
G01*
X148999000Y-116301000D01*
X148999000Y-115699000D01*
X150001000Y-115699000D01*
X150001000Y-116301000D01*
X150001000Y-116301000D01*
G37*
G36*
X152501000Y-116301000D02*
G01*
X151499000Y-116301000D01*
X151499000Y-115699000D01*
X152501000Y-115699000D01*
X152501000Y-116301000D01*
X152501000Y-116301000D01*
G37*
G36*
X131001000Y-115801000D02*
G01*
X129999000Y-115801000D01*
X129999000Y-115199000D01*
X131001000Y-115199000D01*
X131001000Y-115801000D01*
X131001000Y-115801000D01*
G37*
G36*
X135851000Y-115451000D02*
G01*
X134199000Y-115451000D01*
X134199000Y-114049000D01*
X135851000Y-114049000D01*
X135851000Y-115451000D01*
X135851000Y-115451000D01*
G37*
G36*
X143801000Y-115451000D02*
G01*
X142149000Y-115451000D01*
X142149000Y-114049000D01*
X143801000Y-114049000D01*
X143801000Y-115451000D01*
X143801000Y-115451000D01*
G37*
G36*
X147651000Y-114851000D02*
G01*
X146349000Y-114851000D01*
X146349000Y-113849000D01*
X147651000Y-113849000D01*
X147651000Y-114851000D01*
X147651000Y-114851000D01*
G37*
G36*
X171864903Y-112057075D02*
G01*
X172092571Y-112151378D01*
X172297466Y-112288285D01*
X172471715Y-112462534D01*
X172608622Y-112667429D01*
X172702925Y-112895097D01*
X172751000Y-113136787D01*
X172751000Y-113383213D01*
X172702925Y-113624903D01*
X172608622Y-113852571D01*
X172471715Y-114057466D01*
X172297466Y-114231715D01*
X172092571Y-114368622D01*
X172092570Y-114368623D01*
X172092569Y-114368623D01*
X171864903Y-114462925D01*
X171623214Y-114511000D01*
X171376786Y-114511000D01*
X171135097Y-114462925D01*
X170907431Y-114368623D01*
X170907430Y-114368623D01*
X170907429Y-114368622D01*
X170702534Y-114231715D01*
X170528285Y-114057466D01*
X170391378Y-113852571D01*
X170297075Y-113624903D01*
X170249000Y-113383213D01*
X170249000Y-113136787D01*
X170297075Y-112895097D01*
X170391378Y-112667429D01*
X170528285Y-112462534D01*
X170702534Y-112288285D01*
X170907429Y-112151378D01*
X171135097Y-112057075D01*
X171376786Y-112009000D01*
X171623214Y-112009000D01*
X171864903Y-112057075D01*
X171864903Y-112057075D01*
G37*
G36*
X107364903Y-111787075D02*
G01*
X107592571Y-111881378D01*
X107797466Y-112018285D01*
X107971715Y-112192534D01*
X108108622Y-112397429D01*
X108202925Y-112625097D01*
X108251000Y-112866787D01*
X108251000Y-113113213D01*
X108202925Y-113354903D01*
X108108622Y-113582571D01*
X107971715Y-113787466D01*
X107797466Y-113961715D01*
X107592571Y-114098622D01*
X107592570Y-114098623D01*
X107592569Y-114098623D01*
X107364903Y-114192925D01*
X107123214Y-114241000D01*
X106876786Y-114241000D01*
X106635097Y-114192925D01*
X106407431Y-114098623D01*
X106407430Y-114098623D01*
X106407429Y-114098622D01*
X106202534Y-113961715D01*
X106028285Y-113787466D01*
X105891378Y-113582571D01*
X105797075Y-113354903D01*
X105749000Y-113113213D01*
X105749000Y-112866787D01*
X105797075Y-112625097D01*
X105891378Y-112397429D01*
X106028285Y-112192534D01*
X106202534Y-112018285D01*
X106407429Y-111881378D01*
X106635097Y-111787075D01*
X106876786Y-111739000D01*
X107123214Y-111739000D01*
X107364903Y-111787075D01*
X107364903Y-111787075D01*
G37*
G36*
X119286000Y-113211000D02*
G01*
X117184000Y-113211000D01*
X117184000Y-111329000D01*
X119286000Y-111329000D01*
X119286000Y-113211000D01*
X119286000Y-113211000D01*
G37*
G36*
X128816000Y-113211000D02*
G01*
X126714000Y-113211000D01*
X126714000Y-111329000D01*
X128816000Y-111329000D01*
X128816000Y-113211000D01*
X128816000Y-113211000D01*
G37*
G36*
X135401000Y-112601000D02*
G01*
X134399000Y-112601000D01*
X134399000Y-111999000D01*
X135401000Y-111999000D01*
X135401000Y-112601000D01*
X135401000Y-112601000D01*
G37*
G36*
X162756000Y-111726000D02*
G01*
X162054000Y-111726000D01*
X162054000Y-109674000D01*
X162756000Y-109674000D01*
X162756000Y-111726000D01*
X162756000Y-111726000D01*
G37*
G36*
X160216000Y-111726000D02*
G01*
X159514000Y-111726000D01*
X159514000Y-109674000D01*
X160216000Y-109674000D01*
X160216000Y-111726000D01*
X160216000Y-111726000D01*
G37*
G36*
X158946000Y-111726000D02*
G01*
X158244000Y-111726000D01*
X158244000Y-109674000D01*
X158946000Y-109674000D01*
X158946000Y-111726000D01*
X158946000Y-111726000D01*
G37*
G36*
X157676000Y-111726000D02*
G01*
X156974000Y-111726000D01*
X156974000Y-109674000D01*
X157676000Y-109674000D01*
X157676000Y-111726000D01*
X157676000Y-111726000D01*
G37*
G36*
X156406000Y-111726000D02*
G01*
X155704000Y-111726000D01*
X155704000Y-109674000D01*
X156406000Y-109674000D01*
X156406000Y-111726000D01*
X156406000Y-111726000D01*
G37*
G36*
X155136000Y-111726000D02*
G01*
X154434000Y-111726000D01*
X154434000Y-109674000D01*
X155136000Y-109674000D01*
X155136000Y-111726000D01*
X155136000Y-111726000D01*
G37*
G36*
X161486000Y-111726000D02*
G01*
X160784000Y-111726000D01*
X160784000Y-109674000D01*
X161486000Y-109674000D01*
X161486000Y-111726000D01*
X161486000Y-111726000D01*
G37*
G36*
X164026000Y-111726000D02*
G01*
X163324000Y-111726000D01*
X163324000Y-109674000D01*
X164026000Y-109674000D01*
X164026000Y-111726000D01*
X164026000Y-111726000D01*
G37*
G36*
X165296000Y-111726000D02*
G01*
X164594000Y-111726000D01*
X164594000Y-109674000D01*
X165296000Y-109674000D01*
X165296000Y-111726000D01*
X165296000Y-111726000D01*
G37*
G36*
X166566000Y-111726000D02*
G01*
X165864000Y-111726000D01*
X165864000Y-109674000D01*
X166566000Y-109674000D01*
X166566000Y-111726000D01*
X166566000Y-111726000D01*
G37*
G36*
X135401000Y-111101000D02*
G01*
X134399000Y-111101000D01*
X134399000Y-110499000D01*
X135401000Y-110499000D01*
X135401000Y-111101000D01*
X135401000Y-111101000D01*
G37*
G36*
X128816000Y-110671000D02*
G01*
X126714000Y-110671000D01*
X126714000Y-108789000D01*
X128816000Y-108789000D01*
X128816000Y-110671000D01*
X128816000Y-110671000D01*
G37*
G36*
X119286000Y-110671000D02*
G01*
X117184000Y-110671000D01*
X117184000Y-108789000D01*
X119286000Y-108789000D01*
X119286000Y-110671000D01*
X119286000Y-110671000D01*
G37*
G36*
X131001000Y-110301000D02*
G01*
X129999000Y-110301000D01*
X129999000Y-109699000D01*
X131001000Y-109699000D01*
X131001000Y-110301000D01*
X131001000Y-110301000D01*
G37*
G36*
X116051000Y-109901000D02*
G01*
X113949000Y-109901000D01*
X113949000Y-108099000D01*
X116051000Y-108099000D01*
X116051000Y-109901000D01*
X116051000Y-109901000D01*
G37*
G36*
X112051000Y-109901000D02*
G01*
X109949000Y-109901000D01*
X109949000Y-108099000D01*
X112051000Y-108099000D01*
X112051000Y-109901000D01*
X112051000Y-109901000D01*
G37*
G36*
X171864903Y-106977075D02*
G01*
X172092571Y-107071378D01*
X172297466Y-107208285D01*
X172471715Y-107382534D01*
X172608622Y-107587429D01*
X172702925Y-107815097D01*
X172751000Y-108056787D01*
X172751000Y-108303213D01*
X172702925Y-108544903D01*
X172608622Y-108772571D01*
X172471715Y-108977466D01*
X172297466Y-109151715D01*
X172092571Y-109288622D01*
X172092570Y-109288623D01*
X172092569Y-109288623D01*
X171864903Y-109382925D01*
X171623214Y-109431000D01*
X171376786Y-109431000D01*
X171135097Y-109382925D01*
X170907431Y-109288623D01*
X170907430Y-109288623D01*
X170907429Y-109288622D01*
X170702534Y-109151715D01*
X170528285Y-108977466D01*
X170391378Y-108772571D01*
X170297075Y-108544903D01*
X170249000Y-108303213D01*
X170249000Y-108056787D01*
X170297075Y-107815097D01*
X170391378Y-107587429D01*
X170528285Y-107382534D01*
X170702534Y-107208285D01*
X170907429Y-107071378D01*
X171135097Y-106977075D01*
X171376786Y-106929000D01*
X171623214Y-106929000D01*
X171864903Y-106977075D01*
X171864903Y-106977075D01*
G37*
G36*
X107364903Y-106707075D02*
G01*
X107592571Y-106801378D01*
X107797466Y-106938285D01*
X107971715Y-107112534D01*
X108108622Y-107317429D01*
X108202925Y-107545097D01*
X108251000Y-107786787D01*
X108251000Y-108033213D01*
X108202925Y-108274903D01*
X108108622Y-108502571D01*
X107971715Y-108707466D01*
X107797466Y-108881715D01*
X107592571Y-109018622D01*
X107592570Y-109018623D01*
X107592569Y-109018623D01*
X107364903Y-109112925D01*
X107123214Y-109161000D01*
X106876786Y-109161000D01*
X106635097Y-109112925D01*
X106407431Y-109018623D01*
X106407430Y-109018623D01*
X106407429Y-109018622D01*
X106202534Y-108881715D01*
X106028285Y-108707466D01*
X105891378Y-108502571D01*
X105797075Y-108274903D01*
X105749000Y-108033213D01*
X105749000Y-107786787D01*
X105797075Y-107545097D01*
X105891378Y-107317429D01*
X106028285Y-107112534D01*
X106202534Y-106938285D01*
X106407429Y-106801378D01*
X106635097Y-106707075D01*
X106876786Y-106659000D01*
X107123214Y-106659000D01*
X107364903Y-106707075D01*
X107364903Y-106707075D01*
G37*
G36*
X148151000Y-108851000D02*
G01*
X146649000Y-108851000D01*
X146649000Y-107549000D01*
X148151000Y-107549000D01*
X148151000Y-108851000D01*
X148151000Y-108851000D01*
G37*
G36*
X145951000Y-108851000D02*
G01*
X144449000Y-108851000D01*
X144449000Y-107549000D01*
X145951000Y-107549000D01*
X145951000Y-108851000D01*
X145951000Y-108851000D01*
G37*
G36*
X131001000Y-108801000D02*
G01*
X129999000Y-108801000D01*
X129999000Y-108199000D01*
X131001000Y-108199000D01*
X131001000Y-108801000D01*
X131001000Y-108801000D01*
G37*
G36*
X141251000Y-107851000D02*
G01*
X139549000Y-107851000D01*
X139549000Y-106749000D01*
X141251000Y-106749000D01*
X141251000Y-107851000D01*
X141251000Y-107851000D01*
G37*
G36*
X148151000Y-107151000D02*
G01*
X146649000Y-107151000D01*
X146649000Y-105849000D01*
X148151000Y-105849000D01*
X148151000Y-107151000D01*
X148151000Y-107151000D01*
G37*
G36*
X145951000Y-107151000D02*
G01*
X144449000Y-107151000D01*
X144449000Y-105849000D01*
X145951000Y-105849000D01*
X145951000Y-107151000D01*
X145951000Y-107151000D01*
G37*
G36*
X128816000Y-106211000D02*
G01*
X126714000Y-106211000D01*
X126714000Y-104329000D01*
X128816000Y-104329000D01*
X128816000Y-106211000D01*
X128816000Y-106211000D01*
G37*
G36*
X119286000Y-106211000D02*
G01*
X117184000Y-106211000D01*
X117184000Y-104329000D01*
X119286000Y-104329000D01*
X119286000Y-106211000D01*
X119286000Y-106211000D01*
G37*
G36*
X149051000Y-105076000D02*
G01*
X148149000Y-105076000D01*
X148149000Y-104224000D01*
X149051000Y-104224000D01*
X149051000Y-105076000D01*
X149051000Y-105076000D01*
G37*
G36*
X146051000Y-105076000D02*
G01*
X145149000Y-105076000D01*
X145149000Y-104224000D01*
X146051000Y-104224000D01*
X146051000Y-105076000D01*
X146051000Y-105076000D01*
G37*
G36*
X144551000Y-105076000D02*
G01*
X143649000Y-105076000D01*
X143649000Y-104224000D01*
X144551000Y-104224000D01*
X144551000Y-105076000D01*
X144551000Y-105076000D01*
G37*
G36*
X147551000Y-105076000D02*
G01*
X146649000Y-105076000D01*
X146649000Y-104224000D01*
X147551000Y-104224000D01*
X147551000Y-105076000D01*
X147551000Y-105076000D01*
G37*
G36*
X141251000Y-104851000D02*
G01*
X139549000Y-104851000D01*
X139549000Y-103749000D01*
X141251000Y-103749000D01*
X141251000Y-104851000D01*
X141251000Y-104851000D01*
G37*
G36*
X171864903Y-101897075D02*
G01*
X172092571Y-101991378D01*
X172297466Y-102128285D01*
X172471715Y-102302534D01*
X172608622Y-102507429D01*
X172702925Y-102735097D01*
X172751000Y-102976787D01*
X172751000Y-103223213D01*
X172702925Y-103464903D01*
X172608622Y-103692571D01*
X172471715Y-103897466D01*
X172297466Y-104071715D01*
X172092571Y-104208622D01*
X172092570Y-104208623D01*
X172092569Y-104208623D01*
X171864903Y-104302925D01*
X171623214Y-104351000D01*
X171376786Y-104351000D01*
X171135097Y-104302925D01*
X170907431Y-104208623D01*
X170907430Y-104208623D01*
X170907429Y-104208622D01*
X170702534Y-104071715D01*
X170528285Y-103897466D01*
X170391378Y-103692571D01*
X170297075Y-103464903D01*
X170249000Y-103223213D01*
X170249000Y-102976787D01*
X170297075Y-102735097D01*
X170391378Y-102507429D01*
X170528285Y-102302534D01*
X170702534Y-102128285D01*
X170907429Y-101991378D01*
X171135097Y-101897075D01*
X171376786Y-101849000D01*
X171623214Y-101849000D01*
X171864903Y-101897075D01*
X171864903Y-101897075D01*
G37*
G36*
X107364903Y-101627075D02*
G01*
X107592571Y-101721378D01*
X107797466Y-101858285D01*
X107971715Y-102032534D01*
X108108622Y-102237429D01*
X108202925Y-102465097D01*
X108251000Y-102706787D01*
X108251000Y-102953213D01*
X108202925Y-103194903D01*
X108108622Y-103422571D01*
X107971715Y-103627466D01*
X107797466Y-103801715D01*
X107592571Y-103938622D01*
X107592570Y-103938623D01*
X107592569Y-103938623D01*
X107364903Y-104032925D01*
X107123214Y-104081000D01*
X106876786Y-104081000D01*
X106635097Y-104032925D01*
X106407431Y-103938623D01*
X106407430Y-103938623D01*
X106407429Y-103938622D01*
X106202534Y-103801715D01*
X106028285Y-103627466D01*
X105891378Y-103422571D01*
X105797075Y-103194903D01*
X105749000Y-102953213D01*
X105749000Y-102706787D01*
X105797075Y-102465097D01*
X105891378Y-102237429D01*
X106028285Y-102032534D01*
X106202534Y-101858285D01*
X106407429Y-101721378D01*
X106635097Y-101627075D01*
X106876786Y-101579000D01*
X107123214Y-101579000D01*
X107364903Y-101627075D01*
X107364903Y-101627075D01*
G37*
G36*
X119286000Y-103671000D02*
G01*
X117184000Y-103671000D01*
X117184000Y-101789000D01*
X119286000Y-101789000D01*
X119286000Y-103671000D01*
X119286000Y-103671000D01*
G37*
G36*
X128816000Y-103671000D02*
G01*
X126714000Y-103671000D01*
X126714000Y-101789000D01*
X128816000Y-101789000D01*
X128816000Y-103671000D01*
X128816000Y-103671000D01*
G37*
G36*
X112051000Y-103401000D02*
G01*
X109949000Y-103401000D01*
X109949000Y-101599000D01*
X112051000Y-101599000D01*
X112051000Y-103401000D01*
X112051000Y-103401000D01*
G37*
G36*
X116051000Y-103401000D02*
G01*
X113949000Y-103401000D01*
X113949000Y-101599000D01*
X116051000Y-101599000D01*
X116051000Y-103401000D01*
X116051000Y-103401000D01*
G37*
G36*
X131001000Y-103301000D02*
G01*
X129999000Y-103301000D01*
X129999000Y-102699000D01*
X131001000Y-102699000D01*
X131001000Y-103301000D01*
X131001000Y-103301000D01*
G37*
G36*
X143876000Y-102351000D02*
G01*
X137624000Y-102351000D01*
X137624000Y-100649000D01*
X143876000Y-100649000D01*
X143876000Y-102351000D01*
X143876000Y-102351000D01*
G37*
G36*
X156406000Y-102326000D02*
G01*
X155704000Y-102326000D01*
X155704000Y-100274000D01*
X156406000Y-100274000D01*
X156406000Y-102326000D01*
X156406000Y-102326000D01*
G37*
G36*
X165296000Y-102326000D02*
G01*
X164594000Y-102326000D01*
X164594000Y-100274000D01*
X165296000Y-100274000D01*
X165296000Y-102326000D01*
X165296000Y-102326000D01*
G37*
G36*
X155136000Y-102326000D02*
G01*
X154434000Y-102326000D01*
X154434000Y-100274000D01*
X155136000Y-100274000D01*
X155136000Y-102326000D01*
X155136000Y-102326000D01*
G37*
G36*
X157676000Y-102326000D02*
G01*
X156974000Y-102326000D01*
X156974000Y-100274000D01*
X157676000Y-100274000D01*
X157676000Y-102326000D01*
X157676000Y-102326000D01*
G37*
G36*
X158946000Y-102326000D02*
G01*
X158244000Y-102326000D01*
X158244000Y-100274000D01*
X158946000Y-100274000D01*
X158946000Y-102326000D01*
X158946000Y-102326000D01*
G37*
G36*
X160216000Y-102326000D02*
G01*
X159514000Y-102326000D01*
X159514000Y-100274000D01*
X160216000Y-100274000D01*
X160216000Y-102326000D01*
X160216000Y-102326000D01*
G37*
G36*
X161486000Y-102326000D02*
G01*
X160784000Y-102326000D01*
X160784000Y-100274000D01*
X161486000Y-100274000D01*
X161486000Y-102326000D01*
X161486000Y-102326000D01*
G37*
G36*
X162756000Y-102326000D02*
G01*
X162054000Y-102326000D01*
X162054000Y-100274000D01*
X162756000Y-100274000D01*
X162756000Y-102326000D01*
X162756000Y-102326000D01*
G37*
G36*
X166566000Y-102326000D02*
G01*
X165864000Y-102326000D01*
X165864000Y-100274000D01*
X166566000Y-100274000D01*
X166566000Y-102326000D01*
X166566000Y-102326000D01*
G37*
G36*
X164026000Y-102326000D02*
G01*
X163324000Y-102326000D01*
X163324000Y-100274000D01*
X164026000Y-100274000D01*
X164026000Y-102326000D01*
X164026000Y-102326000D01*
G37*
G36*
X131001000Y-101801000D02*
G01*
X129999000Y-101801000D01*
X129999000Y-101199000D01*
X131001000Y-101199000D01*
X131001000Y-101801000D01*
X131001000Y-101801000D01*
G37*
G36*
X137351000Y-100376000D02*
G01*
X135649000Y-100376000D01*
X135649000Y-94124000D01*
X137351000Y-94124000D01*
X137351000Y-100376000D01*
X137351000Y-100376000D01*
G37*
G36*
X145851000Y-100376000D02*
G01*
X144149000Y-100376000D01*
X144149000Y-94124000D01*
X145851000Y-94124000D01*
X145851000Y-100376000D01*
X145851000Y-100376000D01*
G37*
G36*
X171864903Y-96817075D02*
G01*
X172067517Y-96901000D01*
X172092571Y-96911378D01*
X172297466Y-97048285D01*
X172471715Y-97222534D01*
X172608622Y-97427429D01*
X172702925Y-97655097D01*
X172751000Y-97896787D01*
X172751000Y-98143213D01*
X172702925Y-98384903D01*
X172608622Y-98612571D01*
X172471715Y-98817466D01*
X172297466Y-98991715D01*
X172092571Y-99128622D01*
X172092570Y-99128623D01*
X172092569Y-99128623D01*
X171864903Y-99222925D01*
X171623214Y-99271000D01*
X171376786Y-99271000D01*
X171135097Y-99222925D01*
X170907431Y-99128623D01*
X170907430Y-99128623D01*
X170907429Y-99128622D01*
X170702534Y-98991715D01*
X170528285Y-98817466D01*
X170391378Y-98612571D01*
X170297075Y-98384903D01*
X170249000Y-98143213D01*
X170249000Y-97896787D01*
X170297075Y-97655097D01*
X170391378Y-97427429D01*
X170528285Y-97222534D01*
X170702534Y-97048285D01*
X170907429Y-96911378D01*
X170932484Y-96901000D01*
X171135097Y-96817075D01*
X171376786Y-96769000D01*
X171623214Y-96769000D01*
X171864903Y-96817075D01*
X171864903Y-96817075D01*
G37*
G36*
X119286000Y-99211000D02*
G01*
X117184000Y-99211000D01*
X117184000Y-97329000D01*
X119286000Y-97329000D01*
X119286000Y-99211000D01*
X119286000Y-99211000D01*
G37*
G36*
X128816000Y-99211000D02*
G01*
X126714000Y-99211000D01*
X126714000Y-97329000D01*
X128816000Y-97329000D01*
X128816000Y-99211000D01*
X128816000Y-99211000D01*
G37*
G36*
X156651000Y-99176000D02*
G01*
X155749000Y-99176000D01*
X155749000Y-98324000D01*
X156651000Y-98324000D01*
X156651000Y-99176000D01*
X156651000Y-99176000D01*
G37*
G36*
X155151000Y-99176000D02*
G01*
X154249000Y-99176000D01*
X154249000Y-98324000D01*
X155151000Y-98324000D01*
X155151000Y-99176000D01*
X155151000Y-99176000D01*
G37*
G36*
X107248897Y-96524000D02*
G01*
X107364903Y-96547075D01*
X107592571Y-96641378D01*
X107797466Y-96778285D01*
X107971715Y-96952534D01*
X107971716Y-96952536D01*
X108108623Y-97157431D01*
X108202925Y-97385097D01*
X108251000Y-97626786D01*
X108251000Y-97873214D01*
X108202925Y-98114903D01*
X108116315Y-98324000D01*
X108108622Y-98342571D01*
X107971715Y-98547466D01*
X107797466Y-98721715D01*
X107592571Y-98858622D01*
X107592570Y-98858623D01*
X107592569Y-98858623D01*
X107364903Y-98952925D01*
X107123214Y-99001000D01*
X106876786Y-99001000D01*
X106635097Y-98952925D01*
X106407431Y-98858623D01*
X106407430Y-98858623D01*
X106407429Y-98858622D01*
X106202534Y-98721715D01*
X106028285Y-98547466D01*
X105891378Y-98342571D01*
X105883686Y-98324000D01*
X105797075Y-98114903D01*
X105749000Y-97873214D01*
X105749000Y-97626786D01*
X105797075Y-97385097D01*
X105891377Y-97157431D01*
X106028284Y-96952536D01*
X106028285Y-96952534D01*
X106202534Y-96778285D01*
X106407429Y-96641378D01*
X106635097Y-96547075D01*
X106751103Y-96524000D01*
X106876786Y-96499000D01*
X107123214Y-96499000D01*
X107248897Y-96524000D01*
X107248897Y-96524000D01*
G37*
G36*
X165501000Y-97276000D02*
G01*
X164599000Y-97276000D01*
X164599000Y-96424000D01*
X165501000Y-96424000D01*
X165501000Y-97276000D01*
X165501000Y-97276000D01*
G37*
G36*
X167001000Y-97276000D02*
G01*
X166099000Y-97276000D01*
X166099000Y-96424000D01*
X167001000Y-96424000D01*
X167001000Y-97276000D01*
X167001000Y-97276000D01*
G37*
G36*
X116051000Y-96901000D02*
G01*
X113949000Y-96901000D01*
X113949000Y-95099000D01*
X116051000Y-95099000D01*
X116051000Y-96901000D01*
X116051000Y-96901000D01*
G37*
G36*
X112051000Y-96901000D02*
G01*
X109949000Y-96901000D01*
X109949000Y-95099000D01*
X112051000Y-95099000D01*
X112051000Y-96901000D01*
X112051000Y-96901000D01*
G37*
G36*
X128816000Y-96671000D02*
G01*
X126714000Y-96671000D01*
X126714000Y-94789000D01*
X128816000Y-94789000D01*
X128816000Y-96671000D01*
X128816000Y-96671000D01*
G37*
G36*
X119286000Y-96671000D02*
G01*
X117184000Y-96671000D01*
X117184000Y-94789000D01*
X119286000Y-94789000D01*
X119286000Y-96671000D01*
X119286000Y-96671000D01*
G37*
G36*
X131001000Y-96301000D02*
G01*
X129999000Y-96301000D01*
X129999000Y-95699000D01*
X131001000Y-95699000D01*
X131001000Y-96301000D01*
X131001000Y-96301000D01*
G37*
G36*
X131001000Y-94801000D02*
G01*
X129999000Y-94801000D01*
X129999000Y-94199000D01*
X131001000Y-94199000D01*
X131001000Y-94801000D01*
X131001000Y-94801000D01*
G37*
G36*
X171864903Y-91737075D02*
G01*
X172092571Y-91831378D01*
X172297466Y-91968285D01*
X172471715Y-92142534D01*
X172608622Y-92347429D01*
X172702925Y-92575097D01*
X172751000Y-92816787D01*
X172751000Y-93063213D01*
X172702925Y-93304903D01*
X172608622Y-93532571D01*
X172471715Y-93737466D01*
X172297466Y-93911715D01*
X172092571Y-94048622D01*
X172092570Y-94048623D01*
X172092569Y-94048623D01*
X171864903Y-94142925D01*
X171623214Y-94191000D01*
X171376786Y-94191000D01*
X171135097Y-94142925D01*
X170907431Y-94048623D01*
X170907430Y-94048623D01*
X170907429Y-94048622D01*
X170702534Y-93911715D01*
X170528285Y-93737466D01*
X170391378Y-93532571D01*
X170297075Y-93304903D01*
X170249000Y-93063213D01*
X170249000Y-92816787D01*
X170297075Y-92575097D01*
X170391378Y-92347429D01*
X170528285Y-92142534D01*
X170702534Y-91968285D01*
X170907429Y-91831378D01*
X171135097Y-91737075D01*
X171376786Y-91689000D01*
X171623214Y-91689000D01*
X171864903Y-91737075D01*
X171864903Y-91737075D01*
G37*
G36*
X107364903Y-91467075D02*
G01*
X107592571Y-91561378D01*
X107797466Y-91698285D01*
X107971715Y-91872534D01*
X108108622Y-92077429D01*
X108202925Y-92305097D01*
X108251000Y-92546787D01*
X108251000Y-92793213D01*
X108202925Y-93034903D01*
X108108622Y-93262571D01*
X107971715Y-93467466D01*
X107797466Y-93641715D01*
X107592571Y-93778622D01*
X107592570Y-93778623D01*
X107592569Y-93778623D01*
X107364903Y-93872925D01*
X107123214Y-93921000D01*
X106876786Y-93921000D01*
X106635097Y-93872925D01*
X106407431Y-93778623D01*
X106407430Y-93778623D01*
X106407429Y-93778622D01*
X106202534Y-93641715D01*
X106028285Y-93467466D01*
X105891378Y-93262571D01*
X105797075Y-93034903D01*
X105749000Y-92793213D01*
X105749000Y-92546787D01*
X105797075Y-92305097D01*
X105891378Y-92077429D01*
X106028285Y-91872534D01*
X106202534Y-91698285D01*
X106407429Y-91561378D01*
X106635097Y-91467075D01*
X106876786Y-91419000D01*
X107123214Y-91419000D01*
X107364903Y-91467075D01*
X107364903Y-91467075D01*
G37*
G36*
X143876000Y-93851000D02*
G01*
X137624000Y-93851000D01*
X137624000Y-92149000D01*
X143876000Y-92149000D01*
X143876000Y-93851000D01*
X143876000Y-93851000D01*
G37*
G36*
X161601000Y-93351000D02*
G01*
X157999000Y-93351000D01*
X157999000Y-91649000D01*
X161601000Y-91649000D01*
X161601000Y-93351000D01*
X161601000Y-93351000D01*
G37*
G36*
X167001000Y-93351000D02*
G01*
X163399000Y-93351000D01*
X163399000Y-91649000D01*
X167001000Y-91649000D01*
X167001000Y-93351000D01*
X167001000Y-93351000D01*
G37*
G36*
X142926000Y-91101000D02*
G01*
X142074000Y-91101000D01*
X142074000Y-90199000D01*
X142926000Y-90199000D01*
X142926000Y-91101000D01*
X142926000Y-91101000D01*
G37*
G36*
X126638000Y-90551000D02*
G01*
X125012000Y-90551000D01*
X125012000Y-84449000D01*
X126638000Y-84449000D01*
X126638000Y-90551000D01*
X126638000Y-90551000D01*
G37*
G36*
X131488000Y-90551000D02*
G01*
X129862000Y-90551000D01*
X129862000Y-84449000D01*
X131488000Y-84449000D01*
X131488000Y-90551000D01*
X131488000Y-90551000D01*
G37*
G36*
X142926000Y-89601000D02*
G01*
X142074000Y-89601000D01*
X142074000Y-88699000D01*
X142926000Y-88699000D01*
X142926000Y-89601000D01*
X142926000Y-89601000D01*
G37*
G36*
X171864903Y-86657075D02*
G01*
X172092571Y-86751378D01*
X172297466Y-86888285D01*
X172471715Y-87062534D01*
X172608622Y-87267429D01*
X172702925Y-87495097D01*
X172751000Y-87736787D01*
X172751000Y-87983213D01*
X172702925Y-88224903D01*
X172608622Y-88452571D01*
X172471715Y-88657466D01*
X172297466Y-88831715D01*
X172092571Y-88968622D01*
X172092570Y-88968623D01*
X172092569Y-88968623D01*
X171864903Y-89062925D01*
X171623214Y-89111000D01*
X171376786Y-89111000D01*
X171135097Y-89062925D01*
X170907431Y-88968623D01*
X170907430Y-88968623D01*
X170907429Y-88968622D01*
X170702534Y-88831715D01*
X170528285Y-88657466D01*
X170391378Y-88452571D01*
X170297075Y-88224903D01*
X170249000Y-87983213D01*
X170249000Y-87736787D01*
X170297075Y-87495097D01*
X170391378Y-87267429D01*
X170528285Y-87062534D01*
X170702534Y-86888285D01*
X170907429Y-86751378D01*
X171135097Y-86657075D01*
X171376786Y-86609000D01*
X171623214Y-86609000D01*
X171864903Y-86657075D01*
X171864903Y-86657075D01*
G37*
G36*
X120051000Y-88451000D02*
G01*
X117449000Y-88451000D01*
X117449000Y-86549000D01*
X120051000Y-86549000D01*
X120051000Y-88451000D01*
X120051000Y-88451000D01*
G37*
G36*
X124051000Y-88451000D02*
G01*
X121449000Y-88451000D01*
X121449000Y-86549000D01*
X124051000Y-86549000D01*
X124051000Y-88451000D01*
X124051000Y-88451000D01*
G37*
G36*
X155136000Y-88226000D02*
G01*
X154434000Y-88226000D01*
X154434000Y-86174000D01*
X155136000Y-86174000D01*
X155136000Y-88226000D01*
X155136000Y-88226000D01*
G37*
G36*
X165296000Y-88226000D02*
G01*
X164594000Y-88226000D01*
X164594000Y-86174000D01*
X165296000Y-86174000D01*
X165296000Y-88226000D01*
X165296000Y-88226000D01*
G37*
G36*
X166566000Y-88226000D02*
G01*
X165864000Y-88226000D01*
X165864000Y-86174000D01*
X166566000Y-86174000D01*
X166566000Y-88226000D01*
X166566000Y-88226000D01*
G37*
G36*
X162756000Y-88226000D02*
G01*
X162054000Y-88226000D01*
X162054000Y-86174000D01*
X162756000Y-86174000D01*
X162756000Y-88226000D01*
X162756000Y-88226000D01*
G37*
G36*
X161486000Y-88226000D02*
G01*
X160784000Y-88226000D01*
X160784000Y-86174000D01*
X161486000Y-86174000D01*
X161486000Y-88226000D01*
X161486000Y-88226000D01*
G37*
G36*
X158946000Y-88226000D02*
G01*
X158244000Y-88226000D01*
X158244000Y-86174000D01*
X158946000Y-86174000D01*
X158946000Y-88226000D01*
X158946000Y-88226000D01*
G37*
G36*
X156406000Y-88226000D02*
G01*
X155704000Y-88226000D01*
X155704000Y-86174000D01*
X156406000Y-86174000D01*
X156406000Y-88226000D01*
X156406000Y-88226000D01*
G37*
G36*
X157676000Y-88226000D02*
G01*
X156974000Y-88226000D01*
X156974000Y-86174000D01*
X157676000Y-86174000D01*
X157676000Y-88226000D01*
X157676000Y-88226000D01*
G37*
G36*
X164026000Y-88226000D02*
G01*
X163324000Y-88226000D01*
X163324000Y-86174000D01*
X164026000Y-86174000D01*
X164026000Y-88226000D01*
X164026000Y-88226000D01*
G37*
G36*
X160216000Y-88226000D02*
G01*
X159514000Y-88226000D01*
X159514000Y-86174000D01*
X160216000Y-86174000D01*
X160216000Y-88226000D01*
X160216000Y-88226000D01*
G37*
G36*
X139251000Y-88151000D02*
G01*
X138749000Y-88151000D01*
X138749000Y-87449000D01*
X139251000Y-87449000D01*
X139251000Y-88151000D01*
X139251000Y-88151000D01*
G37*
G36*
X138351000Y-88151000D02*
G01*
X137849000Y-88151000D01*
X137849000Y-87449000D01*
X138351000Y-87449000D01*
X138351000Y-88151000D01*
X138351000Y-88151000D01*
G37*
G36*
X140751000Y-88151000D02*
G01*
X139849000Y-88151000D01*
X139849000Y-87249000D01*
X140751000Y-87249000D01*
X140751000Y-88151000D01*
X140751000Y-88151000D01*
G37*
G36*
X142351000Y-88151000D02*
G01*
X141449000Y-88151000D01*
X141449000Y-87249000D01*
X142351000Y-87249000D01*
X142351000Y-88151000D01*
X142351000Y-88151000D01*
G37*
G36*
X136501000Y-88101000D02*
G01*
X135499000Y-88101000D01*
X135499000Y-87499000D01*
X136501000Y-87499000D01*
X136501000Y-88101000D01*
X136501000Y-88101000D01*
G37*
G36*
X136501000Y-86601000D02*
G01*
X135499000Y-86601000D01*
X135499000Y-85999000D01*
X136501000Y-85999000D01*
X136501000Y-86601000D01*
X136501000Y-86601000D01*
G37*
G36*
X133851000Y-85251000D02*
G01*
X132549000Y-85251000D01*
X132549000Y-84249000D01*
X133851000Y-84249000D01*
X133851000Y-85251000D01*
X133851000Y-85251000D01*
G37*
G36*
X139476000Y-85201000D02*
G01*
X138124000Y-85201000D01*
X138124000Y-84099000D01*
X139476000Y-84099000D01*
X139476000Y-85201000D01*
X139476000Y-85201000D01*
G37*
G36*
X141346001Y-85201000D02*
G01*
X139994001Y-85201000D01*
X139994001Y-84099000D01*
X141346001Y-84099000D01*
X141346001Y-85201000D01*
X141346001Y-85201000D01*
G37*
G36*
X114451000Y-84951000D02*
G01*
X112049000Y-84951000D01*
X112049000Y-82349000D01*
X114451000Y-82349000D01*
X114451000Y-84951000D01*
X114451000Y-84951000D01*
G37*
G36*
X171800714Y-81564307D02*
G01*
X171864903Y-81577075D01*
X172092571Y-81671378D01*
X172297466Y-81808285D01*
X172471715Y-81982534D01*
X172471716Y-81982536D01*
X172608623Y-82187431D01*
X172702925Y-82415097D01*
X172751000Y-82656786D01*
X172751000Y-82903214D01*
X172719511Y-83061519D01*
X172702925Y-83144903D01*
X172608622Y-83372571D01*
X172471715Y-83577466D01*
X172297466Y-83751715D01*
X172092571Y-83888622D01*
X172092570Y-83888623D01*
X172092569Y-83888623D01*
X171864903Y-83982925D01*
X171623214Y-84031000D01*
X171376786Y-84031000D01*
X171135097Y-83982925D01*
X170907431Y-83888623D01*
X170907430Y-83888623D01*
X170907429Y-83888622D01*
X170702534Y-83751715D01*
X170528285Y-83577466D01*
X170391378Y-83372571D01*
X170297075Y-83144903D01*
X170280489Y-83061519D01*
X170249000Y-82903214D01*
X170249000Y-82656786D01*
X170297075Y-82415097D01*
X170391377Y-82187431D01*
X170528284Y-81982536D01*
X170528285Y-81982534D01*
X170702534Y-81808285D01*
X170907429Y-81671378D01*
X171135097Y-81577075D01*
X171199286Y-81564307D01*
X171376786Y-81529000D01*
X171623214Y-81529000D01*
X171800714Y-81564307D01*
X171800714Y-81564307D01*
G37*
G36*
X107214794Y-81460155D02*
G01*
X107321150Y-81481311D01*
X107421334Y-81522809D01*
X107521520Y-81564307D01*
X107701844Y-81684795D01*
X107855205Y-81838156D01*
X107975693Y-82018480D01*
X107975693Y-82018481D01*
X108045675Y-82187431D01*
X108058689Y-82218851D01*
X108101000Y-82431560D01*
X108101000Y-82648440D01*
X108058689Y-82861149D01*
X107975693Y-83061520D01*
X107855205Y-83241844D01*
X107701844Y-83395205D01*
X107521520Y-83515693D01*
X107436281Y-83551000D01*
X107321150Y-83598689D01*
X107214795Y-83619844D01*
X107108440Y-83641000D01*
X106891560Y-83641000D01*
X106785205Y-83619844D01*
X106678850Y-83598689D01*
X106563719Y-83551000D01*
X106478480Y-83515693D01*
X106298156Y-83395205D01*
X106144795Y-83241844D01*
X106024307Y-83061520D01*
X105941311Y-82861149D01*
X105899000Y-82648440D01*
X105899000Y-82431560D01*
X105941311Y-82218851D01*
X105954326Y-82187431D01*
X106024307Y-82018481D01*
X106024307Y-82018480D01*
X106144795Y-81838156D01*
X106298156Y-81684795D01*
X106478480Y-81564307D01*
X106578666Y-81522809D01*
X106678850Y-81481311D01*
X106785206Y-81460155D01*
X106891560Y-81439000D01*
X107108440Y-81439000D01*
X107214794Y-81460155D01*
X107214794Y-81460155D01*
G37*
G36*
X124101000Y-83551000D02*
G01*
X122399000Y-83551000D01*
X122399000Y-82449000D01*
X124101000Y-82449000D01*
X124101000Y-83551000D01*
X124101000Y-83551000D01*
G37*
G36*
X121851000Y-83551000D02*
G01*
X120149000Y-83551000D01*
X120149000Y-82449000D01*
X121851000Y-82449000D01*
X121851000Y-83551000D01*
X121851000Y-83551000D01*
G37*
G36*
X139476000Y-83201000D02*
G01*
X138124000Y-83201000D01*
X138124000Y-82099000D01*
X139476000Y-82099000D01*
X139476000Y-83201000D01*
X139476000Y-83201000D01*
G37*
G36*
X141346001Y-83201000D02*
G01*
X139994001Y-83201000D01*
X139994001Y-82099000D01*
X141346001Y-82099000D01*
X141346001Y-83201000D01*
X141346001Y-83201000D01*
G37*
G36*
X127451000Y-82926000D02*
G01*
X126549000Y-82926000D01*
X126549000Y-82074000D01*
X127451000Y-82074000D01*
X127451000Y-82926000D01*
X127451000Y-82926000D01*
G37*
G36*
X128951000Y-82926000D02*
G01*
X128049000Y-82926000D01*
X128049000Y-82074000D01*
X128951000Y-82074000D01*
X128951000Y-82926000D01*
X128951000Y-82926000D01*
G37*
G36*
X136501000Y-82401000D02*
G01*
X135499000Y-82401000D01*
X135499000Y-81799000D01*
X136501000Y-81799000D01*
X136501000Y-82401000D01*
X136501000Y-82401000D01*
G37*
G36*
X133851000Y-81951000D02*
G01*
X132549000Y-81951000D01*
X132549000Y-80949000D01*
X133851000Y-80949000D01*
X133851000Y-81951000D01*
X133851000Y-81951000D01*
G37*
G36*
X136501000Y-80901000D02*
G01*
X135499000Y-80901000D01*
X135499000Y-80299000D01*
X136501000Y-80299000D01*
X136501000Y-80901000D01*
X136501000Y-80901000D01*
G37*
G36*
X114451000Y-80651000D02*
G01*
X112049000Y-80651000D01*
X112049000Y-78049000D01*
X114451000Y-78049000D01*
X114451000Y-80651000D01*
X114451000Y-80651000D01*
G37*
G36*
X127231000Y-80576000D02*
G01*
X126069000Y-80576000D01*
X126069000Y-77924000D01*
X127231000Y-77924000D01*
X127231000Y-80576000D01*
X127231000Y-80576000D01*
G37*
G36*
X129431000Y-80576000D02*
G01*
X128269000Y-80576000D01*
X128269000Y-77924000D01*
X129431000Y-77924000D01*
X129431000Y-80576000D01*
X129431000Y-80576000D01*
G37*
G36*
X124101000Y-80551000D02*
G01*
X122399000Y-80551000D01*
X122399000Y-79449000D01*
X124101000Y-79449000D01*
X124101000Y-80551000D01*
X124101000Y-80551000D01*
G37*
G36*
X121851000Y-80551000D02*
G01*
X120149000Y-80551000D01*
X120149000Y-79449000D01*
X121851000Y-79449000D01*
X121851000Y-80551000D01*
X121851000Y-80551000D01*
G37*
G36*
X119351000Y-79901000D02*
G01*
X118749000Y-79901000D01*
X118749000Y-78899000D01*
X119351000Y-78899000D01*
X119351000Y-79901000D01*
X119351000Y-79901000D01*
G37*
G36*
X117851000Y-79901000D02*
G01*
X117249000Y-79901000D01*
X117249000Y-78899000D01*
X117851000Y-78899000D01*
X117851000Y-79901000D01*
X117851000Y-79901000D01*
G37*
G36*
X136501000Y-79601000D02*
G01*
X135499000Y-79601000D01*
X135499000Y-78999000D01*
X136501000Y-78999000D01*
X136501000Y-79601000D01*
X136501000Y-79601000D01*
G37*
G36*
X125101000Y-79401000D02*
G01*
X124399000Y-79401000D01*
X124399000Y-78899000D01*
X125101000Y-78899000D01*
X125101000Y-79401000D01*
X125101000Y-79401000D01*
G37*
G36*
X171864903Y-76497075D02*
G01*
X172092571Y-76591378D01*
X172297466Y-76728285D01*
X172471715Y-76902534D01*
X172505808Y-76953558D01*
X172608623Y-77107431D01*
X172626179Y-77149815D01*
X172702925Y-77335097D01*
X172751000Y-77576787D01*
X172751000Y-77823213D01*
X172702925Y-78064903D01*
X172608622Y-78292571D01*
X172471715Y-78497466D01*
X172297466Y-78671715D01*
X172092571Y-78808622D01*
X172092570Y-78808623D01*
X172092569Y-78808623D01*
X171864903Y-78902925D01*
X171623214Y-78951000D01*
X171376786Y-78951000D01*
X171135097Y-78902925D01*
X170907431Y-78808623D01*
X170907430Y-78808623D01*
X170907429Y-78808622D01*
X170702534Y-78671715D01*
X170528285Y-78497466D01*
X170391378Y-78292571D01*
X170297075Y-78064903D01*
X170249000Y-77823213D01*
X170249000Y-77576787D01*
X170297075Y-77335097D01*
X170373821Y-77149815D01*
X170391377Y-77107431D01*
X170494192Y-76953558D01*
X170528285Y-76902534D01*
X170702534Y-76728285D01*
X170907429Y-76591378D01*
X171135097Y-76497075D01*
X171376786Y-76449000D01*
X171623214Y-76449000D01*
X171864903Y-76497075D01*
X171864903Y-76497075D01*
G37*
G36*
X155136000Y-78826000D02*
G01*
X154434000Y-78826000D01*
X154434000Y-76774000D01*
X155136000Y-76774000D01*
X155136000Y-78826000D01*
X155136000Y-78826000D01*
G37*
G36*
X156406000Y-78826000D02*
G01*
X155704000Y-78826000D01*
X155704000Y-76774000D01*
X156406000Y-76774000D01*
X156406000Y-78826000D01*
X156406000Y-78826000D01*
G37*
G36*
X165296000Y-78826000D02*
G01*
X164594000Y-78826000D01*
X164594000Y-76774000D01*
X165296000Y-76774000D01*
X165296000Y-78826000D01*
X165296000Y-78826000D01*
G37*
G36*
X157676000Y-78826000D02*
G01*
X156974000Y-78826000D01*
X156974000Y-76774000D01*
X157676000Y-76774000D01*
X157676000Y-78826000D01*
X157676000Y-78826000D01*
G37*
G36*
X158946000Y-78826000D02*
G01*
X158244000Y-78826000D01*
X158244000Y-76774000D01*
X158946000Y-76774000D01*
X158946000Y-78826000D01*
X158946000Y-78826000D01*
G37*
G36*
X162756000Y-78826000D02*
G01*
X162054000Y-78826000D01*
X162054000Y-76774000D01*
X162756000Y-76774000D01*
X162756000Y-78826000D01*
X162756000Y-78826000D01*
G37*
G36*
X164026000Y-78826000D02*
G01*
X163324000Y-78826000D01*
X163324000Y-76774000D01*
X164026000Y-76774000D01*
X164026000Y-78826000D01*
X164026000Y-78826000D01*
G37*
G36*
X166566000Y-78826000D02*
G01*
X165864000Y-78826000D01*
X165864000Y-76774000D01*
X166566000Y-76774000D01*
X166566000Y-78826000D01*
X166566000Y-78826000D01*
G37*
G36*
X160216000Y-78826000D02*
G01*
X159514000Y-78826000D01*
X159514000Y-76774000D01*
X160216000Y-76774000D01*
X160216000Y-78826000D01*
X160216000Y-78826000D01*
G37*
G36*
X161486000Y-78826000D02*
G01*
X160784000Y-78826000D01*
X160784000Y-76774000D01*
X161486000Y-76774000D01*
X161486000Y-78826000D01*
X161486000Y-78826000D01*
G37*
G36*
X143780443Y-76895519D02*
G01*
X143846627Y-76902037D01*
X144016466Y-76953557D01*
X144172991Y-77037222D01*
X144208729Y-77066552D01*
X144310186Y-77149814D01*
X144393448Y-77251271D01*
X144422778Y-77287009D01*
X144506443Y-77443534D01*
X144557963Y-77613373D01*
X144575359Y-77790000D01*
X144557963Y-77966627D01*
X144506443Y-78136466D01*
X144422778Y-78292991D01*
X144393448Y-78328729D01*
X144310186Y-78430186D01*
X144208729Y-78513448D01*
X144172991Y-78542778D01*
X144016466Y-78626443D01*
X143846627Y-78677963D01*
X143780443Y-78684481D01*
X143714260Y-78691000D01*
X143625740Y-78691000D01*
X143559557Y-78684481D01*
X143493373Y-78677963D01*
X143323534Y-78626443D01*
X143167009Y-78542778D01*
X143131271Y-78513448D01*
X143029814Y-78430186D01*
X142946552Y-78328729D01*
X142917222Y-78292991D01*
X142833557Y-78136466D01*
X142782037Y-77966627D01*
X142764641Y-77790000D01*
X142782037Y-77613373D01*
X142833557Y-77443534D01*
X142917222Y-77287009D01*
X142946552Y-77251271D01*
X143029814Y-77149814D01*
X143131271Y-77066552D01*
X143167009Y-77037222D01*
X143323534Y-76953557D01*
X143493373Y-76902037D01*
X143559557Y-76895519D01*
X143625740Y-76889000D01*
X143714260Y-76889000D01*
X143780443Y-76895519D01*
X143780443Y-76895519D01*
G37*
G36*
X146320443Y-76895519D02*
G01*
X146386627Y-76902037D01*
X146556466Y-76953557D01*
X146712991Y-77037222D01*
X146748729Y-77066552D01*
X146850186Y-77149814D01*
X146933448Y-77251271D01*
X146962778Y-77287009D01*
X147046443Y-77443534D01*
X147097963Y-77613373D01*
X147115359Y-77790000D01*
X147097963Y-77966627D01*
X147046443Y-78136466D01*
X146962778Y-78292991D01*
X146933448Y-78328729D01*
X146850186Y-78430186D01*
X146748729Y-78513448D01*
X146712991Y-78542778D01*
X146556466Y-78626443D01*
X146386627Y-78677963D01*
X146320443Y-78684481D01*
X146254260Y-78691000D01*
X146165740Y-78691000D01*
X146099557Y-78684481D01*
X146033373Y-78677963D01*
X145863534Y-78626443D01*
X145707009Y-78542778D01*
X145671271Y-78513448D01*
X145569814Y-78430186D01*
X145486552Y-78328729D01*
X145457222Y-78292991D01*
X145373557Y-78136466D01*
X145322037Y-77966627D01*
X145304641Y-77790000D01*
X145322037Y-77613373D01*
X145373557Y-77443534D01*
X145457222Y-77287009D01*
X145486552Y-77251271D01*
X145569814Y-77149814D01*
X145671271Y-77066552D01*
X145707009Y-77037222D01*
X145863534Y-76953557D01*
X146033373Y-76902037D01*
X146099557Y-76895519D01*
X146165740Y-76889000D01*
X146254260Y-76889000D01*
X146320443Y-76895519D01*
X146320443Y-76895519D01*
G37*
G36*
X148860443Y-76895519D02*
G01*
X148926627Y-76902037D01*
X149096466Y-76953557D01*
X149252991Y-77037222D01*
X149288729Y-77066552D01*
X149390186Y-77149814D01*
X149473448Y-77251271D01*
X149502778Y-77287009D01*
X149586443Y-77443534D01*
X149637963Y-77613373D01*
X149655359Y-77790000D01*
X149637963Y-77966627D01*
X149586443Y-78136466D01*
X149502778Y-78292991D01*
X149473448Y-78328729D01*
X149390186Y-78430186D01*
X149288729Y-78513448D01*
X149252991Y-78542778D01*
X149096466Y-78626443D01*
X148926627Y-78677963D01*
X148860443Y-78684481D01*
X148794260Y-78691000D01*
X148705740Y-78691000D01*
X148639557Y-78684481D01*
X148573373Y-78677963D01*
X148403534Y-78626443D01*
X148247009Y-78542778D01*
X148211271Y-78513448D01*
X148109814Y-78430186D01*
X148026552Y-78328729D01*
X147997222Y-78292991D01*
X147913557Y-78136466D01*
X147862037Y-77966627D01*
X147844641Y-77790000D01*
X147862037Y-77613373D01*
X147913557Y-77443534D01*
X147997222Y-77287009D01*
X148026552Y-77251271D01*
X148109814Y-77149814D01*
X148211271Y-77066552D01*
X148247009Y-77037222D01*
X148403534Y-76953557D01*
X148573373Y-76902037D01*
X148639557Y-76895519D01*
X148705740Y-76889000D01*
X148794260Y-76889000D01*
X148860443Y-76895519D01*
X148860443Y-76895519D01*
G37*
G36*
X108101000Y-78561000D02*
G01*
X105899000Y-78561000D01*
X105899000Y-76359000D01*
X108101000Y-76359000D01*
X108101000Y-78561000D01*
X108101000Y-78561000D01*
G37*
G36*
X125101000Y-78501000D02*
G01*
X124399000Y-78501000D01*
X124399000Y-77999000D01*
X125101000Y-77999000D01*
X125101000Y-78501000D01*
X125101000Y-78501000D01*
G37*
G36*
X136501000Y-78101000D02*
G01*
X135499000Y-78101000D01*
X135499000Y-77499000D01*
X136501000Y-77499000D01*
X136501000Y-78101000D01*
X136501000Y-78101000D01*
G37*
G36*
X143780442Y-74355518D02*
G01*
X143846627Y-74362037D01*
X144016466Y-74413557D01*
X144172991Y-74497222D01*
X144208729Y-74526552D01*
X144310186Y-74609814D01*
X144393448Y-74711271D01*
X144422778Y-74747009D01*
X144422779Y-74747011D01*
X144493551Y-74879414D01*
X144506443Y-74903534D01*
X144557963Y-75073373D01*
X144575359Y-75250000D01*
X144557963Y-75426627D01*
X144506443Y-75596466D01*
X144422778Y-75752991D01*
X144393448Y-75788729D01*
X144310186Y-75890186D01*
X144208729Y-75973448D01*
X144172991Y-76002778D01*
X144016466Y-76086443D01*
X143846627Y-76137963D01*
X143780442Y-76144482D01*
X143714260Y-76151000D01*
X143625740Y-76151000D01*
X143559558Y-76144482D01*
X143493373Y-76137963D01*
X143323534Y-76086443D01*
X143167009Y-76002778D01*
X143131271Y-75973448D01*
X143029814Y-75890186D01*
X142946552Y-75788729D01*
X142917222Y-75752991D01*
X142833557Y-75596466D01*
X142782037Y-75426627D01*
X142764641Y-75250000D01*
X142782037Y-75073373D01*
X142833557Y-74903534D01*
X142846450Y-74879414D01*
X142917221Y-74747011D01*
X142917222Y-74747009D01*
X142946552Y-74711271D01*
X143029814Y-74609814D01*
X143131271Y-74526552D01*
X143167009Y-74497222D01*
X143323534Y-74413557D01*
X143493373Y-74362037D01*
X143559558Y-74355518D01*
X143625740Y-74349000D01*
X143714260Y-74349000D01*
X143780442Y-74355518D01*
X143780442Y-74355518D01*
G37*
G36*
X146320442Y-74355518D02*
G01*
X146386627Y-74362037D01*
X146556466Y-74413557D01*
X146712991Y-74497222D01*
X146748729Y-74526552D01*
X146850186Y-74609814D01*
X146933448Y-74711271D01*
X146962778Y-74747009D01*
X146962779Y-74747011D01*
X147033551Y-74879414D01*
X147046443Y-74903534D01*
X147097963Y-75073373D01*
X147115359Y-75250000D01*
X147097963Y-75426627D01*
X147046443Y-75596466D01*
X146962778Y-75752991D01*
X146933448Y-75788729D01*
X146850186Y-75890186D01*
X146748729Y-75973448D01*
X146712991Y-76002778D01*
X146556466Y-76086443D01*
X146386627Y-76137963D01*
X146320442Y-76144482D01*
X146254260Y-76151000D01*
X146165740Y-76151000D01*
X146099558Y-76144482D01*
X146033373Y-76137963D01*
X145863534Y-76086443D01*
X145707009Y-76002778D01*
X145671271Y-75973448D01*
X145569814Y-75890186D01*
X145486552Y-75788729D01*
X145457222Y-75752991D01*
X145373557Y-75596466D01*
X145322037Y-75426627D01*
X145304641Y-75250000D01*
X145322037Y-75073373D01*
X145373557Y-74903534D01*
X145386450Y-74879414D01*
X145457221Y-74747011D01*
X145457222Y-74747009D01*
X145486552Y-74711271D01*
X145569814Y-74609814D01*
X145671271Y-74526552D01*
X145707009Y-74497222D01*
X145863534Y-74413557D01*
X146033373Y-74362037D01*
X146099558Y-74355518D01*
X146165740Y-74349000D01*
X146254260Y-74349000D01*
X146320442Y-74355518D01*
X146320442Y-74355518D01*
G37*
G36*
X149651000Y-76151000D02*
G01*
X147849000Y-76151000D01*
X147849000Y-74349000D01*
X149651000Y-74349000D01*
X149651000Y-76151000D01*
X149651000Y-76151000D01*
G37*
G36*
X155101000Y-75676000D02*
G01*
X154199000Y-75676000D01*
X154199000Y-74824000D01*
X155101000Y-74824000D01*
X155101000Y-75676000D01*
X155101000Y-75676000D01*
G37*
G36*
X156601000Y-75676000D02*
G01*
X155699000Y-75676000D01*
X155699000Y-74824000D01*
X156601000Y-74824000D01*
X156601000Y-75676000D01*
X156601000Y-75676000D01*
G37*
G36*
X115233642Y-73729781D02*
G01*
X115379414Y-73790162D01*
X115379416Y-73790163D01*
X115510608Y-73877822D01*
X115622178Y-73989392D01*
X115709837Y-74120584D01*
X115709838Y-74120586D01*
X115770219Y-74266358D01*
X115801000Y-74421107D01*
X115801000Y-74578893D01*
X115770219Y-74733642D01*
X115764682Y-74747009D01*
X115709837Y-74879416D01*
X115622178Y-75010608D01*
X115510608Y-75122178D01*
X115379416Y-75209837D01*
X115379415Y-75209838D01*
X115379414Y-75209838D01*
X115233642Y-75270219D01*
X115078893Y-75301000D01*
X114921107Y-75301000D01*
X114766358Y-75270219D01*
X114620586Y-75209838D01*
X114620585Y-75209838D01*
X114620584Y-75209837D01*
X114489392Y-75122178D01*
X114377822Y-75010608D01*
X114290163Y-74879416D01*
X114235318Y-74747009D01*
X114229781Y-74733642D01*
X114199000Y-74578893D01*
X114199000Y-74421107D01*
X114229781Y-74266358D01*
X114290162Y-74120586D01*
X114290163Y-74120584D01*
X114377822Y-73989392D01*
X114489392Y-73877822D01*
X114620584Y-73790163D01*
X114620586Y-73790162D01*
X114766358Y-73729781D01*
X114921107Y-73699000D01*
X115078893Y-73699000D01*
X115233642Y-73729781D01*
X115233642Y-73729781D01*
G37*
G36*
X120483642Y-73729781D02*
G01*
X120629414Y-73790162D01*
X120629416Y-73790163D01*
X120760608Y-73877822D01*
X120872178Y-73989392D01*
X120959837Y-74120584D01*
X120959838Y-74120586D01*
X121020219Y-74266358D01*
X121051000Y-74421107D01*
X121051000Y-74578893D01*
X121020219Y-74733642D01*
X121014682Y-74747009D01*
X120959837Y-74879416D01*
X120872178Y-75010608D01*
X120760608Y-75122178D01*
X120629416Y-75209837D01*
X120629415Y-75209838D01*
X120629414Y-75209838D01*
X120483642Y-75270219D01*
X120328893Y-75301000D01*
X120171107Y-75301000D01*
X120016358Y-75270219D01*
X119870586Y-75209838D01*
X119870585Y-75209838D01*
X119870584Y-75209837D01*
X119739392Y-75122178D01*
X119627822Y-75010608D01*
X119540163Y-74879416D01*
X119485318Y-74747009D01*
X119479781Y-74733642D01*
X119449000Y-74578893D01*
X119449000Y-74421107D01*
X119479781Y-74266358D01*
X119540162Y-74120586D01*
X119540163Y-74120584D01*
X119627822Y-73989392D01*
X119739392Y-73877822D01*
X119870584Y-73790163D01*
X119870586Y-73790162D01*
X120016358Y-73729781D01*
X120171107Y-73699000D01*
X120328893Y-73699000D01*
X120483642Y-73729781D01*
X120483642Y-73729781D01*
G37*
G36*
X132483642Y-73729781D02*
G01*
X132629414Y-73790162D01*
X132629416Y-73790163D01*
X132760608Y-73877822D01*
X132872178Y-73989392D01*
X132959837Y-74120584D01*
X132959838Y-74120586D01*
X133020219Y-74266358D01*
X133051000Y-74421107D01*
X133051000Y-74578893D01*
X133020219Y-74733642D01*
X133014682Y-74747009D01*
X132959837Y-74879416D01*
X132872178Y-75010608D01*
X132760608Y-75122178D01*
X132629416Y-75209837D01*
X132629415Y-75209838D01*
X132629414Y-75209838D01*
X132483642Y-75270219D01*
X132328893Y-75301000D01*
X132171107Y-75301000D01*
X132016358Y-75270219D01*
X131870586Y-75209838D01*
X131870585Y-75209838D01*
X131870584Y-75209837D01*
X131739392Y-75122178D01*
X131627822Y-75010608D01*
X131540163Y-74879416D01*
X131485318Y-74747009D01*
X131479781Y-74733642D01*
X131449000Y-74578893D01*
X131449000Y-74421107D01*
X131479781Y-74266358D01*
X131540162Y-74120586D01*
X131540163Y-74120584D01*
X131627822Y-73989392D01*
X131739392Y-73877822D01*
X131870584Y-73790163D01*
X131870586Y-73790162D01*
X132016358Y-73729781D01*
X132171107Y-73699000D01*
X132328893Y-73699000D01*
X132483642Y-73729781D01*
X132483642Y-73729781D01*
G37*
M02*
