M48
; DRILL file {KiCad (5.1.2)-2} date 26/08/2020 15:48:35
; FORMAT={-:-/ absolute / inch / decimal}
; #@! TF.CreationDate,2020-08-26T15:48:35-05:00
; #@! TF.GenerationSoftware,Kicad,Pcbnew,(5.1.2)-2
; #@! TF.FileFunction,Plated,1,2,PTH
FMAT,2
INCH
T1C0.0177
T2C0.0394
T3C0.0551
T4C0.0630
%
G90
G05
T1
X4.0551Y-2.9921
X4.0551Y-3.1496
X4.0551Y-3.2677
X4.0551Y-3.4055
X4.0551Y-3.6614
X4.0551Y-3.8583
X4.0551Y-4.0945
X4.0551Y-4.2913
X4.0551Y-4.4882
X4.0551Y-4.685
X4.3307Y-4.6457
X4.4094Y-3.6614
X4.4094Y-3.8976
X4.4094Y-4.1339
X4.4094Y-4.4094
X4.4587Y-3.4055
X4.5669Y-3.3071
X4.5748Y-3.0157
X4.5768Y-3.8681
X4.5768Y-4.1437
X4.5768Y-4.4193
X4.5768Y-4.6949
X4.6063Y-3.6614
X4.6457Y-3.3071
X4.6457Y-3.3661
X4.8031Y-3.3071
X5.0787Y-3.6417
X5.0984Y-3.878
X5.0984Y-4.1535
X5.0984Y-4.4291
X5.0984Y-4.7047
X5.1378Y-3.9567
X5.1378Y-4.2421
X5.1378Y-4.5079
X5.1575Y-3.1299
X5.1732Y-3.6811
X5.2126Y-3.0079
X5.2362Y-4.7008
X5.2559Y-3.4646
X5.311Y-4.1496
X5.311Y-4.315
X5.3543Y-3.0315
X5.3543Y-3.5
X5.4134Y-3.5433
X5.437Y-3.8465
X5.4429Y-3.7933
X5.4724Y-4.7047
X5.4744Y-3.7579
X5.4921Y-3.0315
X5.4941Y-3.935
X5.4961Y-3.2126
X5.5236Y-3.8839
X5.5256Y-3.7146
X5.5394Y-3.5079
X5.5866Y-4.2244
X5.6102Y-3.2598
X5.6201Y-3.75
X5.6535Y-4.1811
X5.6575Y-3.4449
X5.7087Y-3.5433
X5.748Y-3.622
X5.7559Y-4.0787
X5.7874Y-4.4409
X5.7992Y-3.7362
X5.8504Y-4.2598
X5.9213Y-3.1654
X5.9764Y-2.9921
X5.9764Y-3.1181
X6.0Y-3.5433
X6.0Y-3.7008
X6.0Y-3.8819
X6.0394Y-3.9921
X6.063Y-4.4882
X6.0866Y-4.189
X6.0866Y-4.2795
X6.0866Y-4.6693
X6.0945Y-3.2382
X6.0945Y-3.3701
X6.0945Y-3.622
X6.0945Y-3.7953
X6.1299Y-3.5453
X6.1417Y-2.9921
X6.1811Y-4.5669
X6.189Y-3.6417
X6.2402Y-3.7008
X6.2402Y-4.626
X6.2441Y-3.0
X6.2441Y-3.1181
X6.2441Y-3.1575
X6.2441Y-3.3386
X6.2441Y-3.378
X6.2441Y-3.4961
X6.2441Y-3.9291
X6.2441Y-4.0472
X6.2441Y-4.0866
X6.2441Y-4.2598
X6.2441Y-4.2992
X6.2441Y-4.4173
X6.2913Y-3.0
X6.2913Y-3.1181
X6.2913Y-3.1575
X6.2913Y-3.3386
X6.2913Y-3.378
X6.2913Y-3.4961
X6.2913Y-3.9291
X6.2913Y-4.0472
X6.2913Y-4.0866
X6.2913Y-4.2598
X6.2913Y-4.2992
X6.2913Y-4.4173
X6.2992Y-3.7008
X6.2992Y-4.626
X6.3465Y-3.0
X6.3465Y-3.1181
X6.3465Y-3.1575
X6.3465Y-3.1575
X6.3465Y-3.3386
X6.3465Y-3.378
X6.3465Y-3.4961
X6.3465Y-3.9291
X6.3465Y-4.0472
X6.3465Y-4.0866
X6.3465Y-4.2598
X6.3465Y-4.2992
X6.3465Y-4.4173
X6.3583Y-3.7008
X6.3583Y-4.626
X6.3937Y-3.0
X6.3937Y-3.1181
X6.3937Y-3.1575
X6.3937Y-3.3386
X6.3937Y-3.378
X6.3937Y-3.4961
X6.3937Y-3.9291
X6.3937Y-4.0472
X6.3937Y-4.0866
X6.3937Y-4.2598
X6.3937Y-4.2992
X6.3937Y-4.4173
X6.4528Y-3.813
X6.4528Y-4.7323
X6.5906Y-3.4567
X6.622Y-3.6457
X6.622Y-3.8169
X6.622Y-4.3543
X6.622Y-4.5591
X6.622Y-4.6752
X6.9055Y-3.063
X6.9055Y-3.2598
X6.9055Y-3.4803
X6.9055Y-3.6693
X6.9055Y-3.8819
X6.9055Y-4.0709
X6.9055Y-4.2756
X6.9055Y-4.4961
T2
X5.7874Y-4.7441
X5.8874Y-4.7441
X5.9874Y-4.7441
X6.0874Y-4.7441
X5.6563Y-2.9626
X5.6563Y-3.0626
X5.7563Y-2.9626
X5.7563Y-3.0626
X5.8563Y-2.9626
X5.8563Y-3.0626
T3
X4.2126Y-3.0496
X4.2126Y-3.2496
T4
X6.752Y-3.0591
X6.752Y-3.2591
X6.752Y-3.4591
X6.752Y-3.6591
X6.752Y-3.8591
X6.752Y-4.0591
X6.752Y-4.2591
X6.752Y-4.4591
X4.2126Y-3.6484
X4.2126Y-3.8484
X4.2126Y-4.0484
X4.2126Y-4.2484
X4.2126Y-4.4484
X4.2126Y-4.6484
T0
M30
