G04 #@! TF.GenerationSoftware,KiCad,Pcbnew,(5.1.2)-2*
G04 #@! TF.CreationDate,2020-08-26T15:48:27-05:00*
G04 #@! TF.ProjectId,EDS-Relays,4544532d-5265-46c6-9179-732e6b696361,rev?*
G04 #@! TF.SameCoordinates,Original*
G04 #@! TF.FileFunction,Paste,Top*
G04 #@! TF.FilePolarity,Positive*
%FSLAX46Y46*%
G04 Gerber Fmt 4.6, Leading zero omitted, Abs format (unit mm)*
G04 Created by KiCad (PCBNEW (5.1.2)-2) date 2020-08-26 15:48:27*
%MOMM*%
%LPD*%
G04 APERTURE LIST*
%ADD10R,3.500000X1.600000*%
%ADD11R,0.750000X0.800000*%
%ADD12R,0.800000X0.750000*%
%ADD13R,1.250000X1.000000*%
%ADD14R,1.200000X0.900000*%
%ADD15R,2.300000X2.500000*%
%ADD16R,2.500000X1.800000*%
%ADD17R,0.800000X0.800000*%
%ADD18R,0.500000X0.900000*%
%ADD19R,0.900000X0.500000*%
%ADD20R,2.000000X1.700000*%
%ADD21R,0.600000X0.400000*%
%ADD22R,0.400000X0.600000*%
%ADD23R,1.550000X1.300000*%
%ADD24R,0.550000X1.600000*%
%ADD25R,1.600000X0.550000*%
%ADD26R,2.000000X1.780000*%
%ADD27R,0.600000X1.950000*%
%ADD28R,1.060000X0.650000*%
%ADD29R,1.524000X6.000000*%
%ADD30R,1.400000X1.200000*%
%ADD31R,1.600000X1.000000*%
G04 APERTURE END LIST*
D10*
X159800000Y-92500000D03*
X165200000Y-92500000D03*
D11*
X142500000Y-90650000D03*
X142500000Y-89150000D03*
D12*
X144100000Y-104650000D03*
X145600000Y-104650000D03*
X147100000Y-104650000D03*
X148600000Y-104650000D03*
X127000000Y-82500000D03*
X128500000Y-82500000D03*
X156150000Y-75250000D03*
X154650000Y-75250000D03*
X156200000Y-98750000D03*
X154700000Y-98750000D03*
D13*
X138800000Y-84650000D03*
X138800000Y-82650000D03*
X140670001Y-82650000D03*
X140670001Y-84650000D03*
D12*
X166550000Y-96850000D03*
X165050000Y-96850000D03*
X166550000Y-120300000D03*
X165050000Y-120300000D03*
D10*
X165200000Y-116000000D03*
X159800000Y-116000000D03*
D14*
X147000000Y-114350000D03*
X147000000Y-117650000D03*
D15*
X113250000Y-79350000D03*
X113250000Y-83650000D03*
D16*
X122750000Y-87500000D03*
X118750000Y-87500000D03*
D14*
X133200000Y-84750000D03*
X133200000Y-81450000D03*
D17*
X140300000Y-87700000D03*
X141900000Y-87700000D03*
D18*
X117550000Y-79400000D03*
X119050000Y-79400000D03*
D19*
X136000000Y-86300000D03*
X136000000Y-87800000D03*
D20*
X115000000Y-96000000D03*
X111000000Y-96000000D03*
X115000000Y-102500000D03*
X111000000Y-102500000D03*
X111000000Y-109000000D03*
X115000000Y-109000000D03*
X111000000Y-115500000D03*
X115000000Y-115500000D03*
D19*
X130500000Y-96000000D03*
X130500000Y-94500000D03*
X130500000Y-101500000D03*
X130500000Y-103000000D03*
X130500000Y-110000000D03*
X130500000Y-108500000D03*
X130500000Y-115500000D03*
X130500000Y-117000000D03*
X134900000Y-110800000D03*
X134900000Y-112300000D03*
X149500000Y-117500000D03*
X149500000Y-116000000D03*
X152000000Y-116000000D03*
X152000000Y-117500000D03*
D21*
X124750000Y-78250000D03*
X124750000Y-79150000D03*
D19*
X136000000Y-82100000D03*
X136000000Y-80600000D03*
X136000000Y-77800000D03*
X136000000Y-79300000D03*
D22*
X139000000Y-87800000D03*
X138100000Y-87800000D03*
D23*
X135025000Y-114750000D03*
X142975000Y-114750000D03*
X135025000Y-119250000D03*
X142975000Y-119250000D03*
D24*
X137950000Y-101500000D03*
X138750000Y-101500000D03*
X139550000Y-101500000D03*
X140350000Y-101500000D03*
X141150000Y-101500000D03*
X141950000Y-101500000D03*
X142750000Y-101500000D03*
X143550000Y-101500000D03*
D25*
X145000000Y-100050000D03*
X145000000Y-99250000D03*
X145000000Y-98450000D03*
X145000000Y-97650000D03*
X145000000Y-96850000D03*
X145000000Y-96050000D03*
X145000000Y-95250000D03*
X145000000Y-94450000D03*
D24*
X143550000Y-93000000D03*
X142750000Y-93000000D03*
X141950000Y-93000000D03*
X141150000Y-93000000D03*
X140350000Y-93000000D03*
X139550000Y-93000000D03*
X138750000Y-93000000D03*
X137950000Y-93000000D03*
D25*
X136500000Y-94450000D03*
X136500000Y-95250000D03*
X136500000Y-96050000D03*
X136500000Y-96850000D03*
X136500000Y-97650000D03*
X136500000Y-98450000D03*
X136500000Y-99250000D03*
X136500000Y-100050000D03*
D26*
X118235000Y-95730000D03*
X127765000Y-98270000D03*
X118235000Y-98270000D03*
X127765000Y-95730000D03*
X118235000Y-102730000D03*
X127765000Y-105270000D03*
X118235000Y-105270000D03*
X127765000Y-102730000D03*
X127765000Y-109730000D03*
X118235000Y-112270000D03*
X127765000Y-112270000D03*
X118235000Y-109730000D03*
X127765000Y-116730000D03*
X118235000Y-119270000D03*
X127765000Y-119270000D03*
X118235000Y-116730000D03*
D27*
X154785000Y-101300000D03*
X156055000Y-101300000D03*
X157325000Y-101300000D03*
X158595000Y-101300000D03*
X159865000Y-101300000D03*
X161135000Y-101300000D03*
X162405000Y-101300000D03*
X163675000Y-101300000D03*
X164945000Y-101300000D03*
X166215000Y-101300000D03*
X166215000Y-110700000D03*
X164945000Y-110700000D03*
X163675000Y-110700000D03*
X162405000Y-110700000D03*
X161135000Y-110700000D03*
X159865000Y-110700000D03*
X158595000Y-110700000D03*
X157325000Y-110700000D03*
X156055000Y-110700000D03*
X154785000Y-110700000D03*
X154785000Y-87200000D03*
X156055000Y-87200000D03*
X157325000Y-87200000D03*
X158595000Y-87200000D03*
X159865000Y-87200000D03*
X161135000Y-87200000D03*
X162405000Y-87200000D03*
X163675000Y-87200000D03*
X164945000Y-87200000D03*
X166215000Y-87200000D03*
X166215000Y-77800000D03*
X164945000Y-77800000D03*
X163675000Y-77800000D03*
X162405000Y-77800000D03*
X161135000Y-77800000D03*
X159865000Y-77800000D03*
X158595000Y-77800000D03*
X157325000Y-77800000D03*
X156055000Y-77800000D03*
X154785000Y-77800000D03*
D28*
X128850000Y-80200000D03*
X128850000Y-79250000D03*
X128850000Y-78300000D03*
X126650000Y-78300000D03*
X126650000Y-80200000D03*
X126650000Y-79250000D03*
D29*
X125825000Y-87500000D03*
X130675000Y-87500000D03*
D30*
X145200000Y-108200000D03*
X147400000Y-108200000D03*
X147400000Y-106500000D03*
X145200000Y-106500000D03*
D31*
X140400000Y-104300000D03*
X140400000Y-107300000D03*
X121000000Y-83000000D03*
X121000000Y-80000000D03*
X123250000Y-80000000D03*
X123250000Y-83000000D03*
M02*
